# Tiled2Unity generated file. Do not modify by hand.
# Wavefront file for 'Map-01_mesh_0003.obj'

# Vertices (Count = 564)
v -912 -688 0
v -928 -688 0
v -928 -672 0
v -912 -672 0
v -896 -688 0
v -912 -688 0
v -912 -672 0
v -896 -672 0
v -880 -688 0
v -896 -688 0
v -896 -672 0
v -880 -672 0
v -864 -688 0
v -880 -688 0
v -880 -672 0
v -864 -672 0
v -848 -688 0
v -864 -688 0
v -864 -672 0
v -848 -672 0
v -832 -688 0
v -848 -688 0
v -848 -672 0
v -832 -672 0
v -816 -688 0
v -832 -688 0
v -832 -672 0
v -816 -672 0
v -800 -688 0
v -816 -688 0
v -816 -672 0
v -800 -672 0
v -784 -688 0
v -800 -688 0
v -800 -672 0
v -784 -672 0
v -768 -688 0
v -784 -688 0
v -784 -672 0
v -768 -672 0
v -752 -688 0
v -768 -688 0
v -768 -672 0
v -752 -672 0
v -736 -688 0
v -752 -688 0
v -752 -672 0
v -736 -672 0
v -720 -688 0
v -736 -688 0
v -736 -672 0
v -720 -672 0
v -704 -688 0
v -720 -688 0
v -720 -672 0
v -704 -672 0
v -688 -688 0
v -704 -688 0
v -704 -672 0
v -688 -672 0
v -576 -688 0
v -592 -688 0
v -592 -672 0
v -576 -672 0
v -560 -688 0
v -576 -688 0
v -576 -672 0
v -560 -672 0
v -544 -688 0
v -560 -688 0
v -560 -672 0
v -544 -672 0
v -528 -688 0
v -544 -688 0
v -544 -672 0
v -528 -672 0
v -512 -688 0
v -528 -688 0
v -528 -672 0
v -512 -672 0
v -496 -688 0
v -512 -688 0
v -512 -672 0
v -496 -672 0
v -480 -688 0
v -496 -688 0
v -496 -672 0
v -480 -672 0
v -464 -688 0
v -480 -688 0
v -480 -672 0
v -464 -672 0
v -448 -688 0
v -464 -688 0
v -464 -672 0
v -448 -672 0
v -432 -688 0
v -448 -688 0
v -448 -672 0
v -432 -672 0
v -912 -704 0
v -928 -704 0
v -928 -688 0
v -912 -688 0
v -896 -704 0
v -912 -704 0
v -912 -688 0
v -896 -688 0
v -448 -704 0
v -464 -704 0
v -464 -688 0
v -448 -688 0
v -432 -704 0
v -448 -704 0
v -448 -688 0
v -432 -688 0
v -912 -720 0
v -928 -720 0
v -928 -704 0
v -912 -704 0
v -896 -720 0
v -912 -720 0
v -912 -704 0
v -896 -704 0
v -448 -720 0
v -464 -720 0
v -464 -704 0
v -448 -704 0
v -432 -720 0
v -448 -720 0
v -448 -704 0
v -432 -704 0
v -912 -736 0
v -928 -736 0
v -928 -720 0
v -912 -720 0
v -896 -736 0
v -912 -736 0
v -912 -720 0
v -896 -720 0
v -448 -736 0
v -464 -736 0
v -464 -720 0
v -448 -720 0
v -432 -736 0
v -448 -736 0
v -448 -720 0
v -432 -720 0
v -416 -736 0
v -432 -736 0
v -432 -720 0
v -416 -720 0
v -400 -736 0
v -416 -736 0
v -416 -720 0
v -400 -720 0
v -384 -736 0
v -400 -736 0
v -400 -720 0
v -384 -720 0
v -912 -752 0
v -928 -752 0
v -928 -736 0
v -912 -736 0
v -896 -752 0
v -912 -752 0
v -912 -736 0
v -896 -736 0
v -400 -752 0
v -416 -752 0
v -416 -736 0
v -400 -736 0
v -384 -752 0
v -400 -752 0
v -400 -736 0
v -384 -736 0
v -912 -768 0
v -928 -768 0
v -928 -752 0
v -912 -752 0
v -896 -768 0
v -912 -768 0
v -912 -752 0
v -896 -752 0
v -400 -768 0
v -416 -768 0
v -416 -752 0
v -400 -752 0
v -384 -768 0
v -400 -768 0
v -400 -752 0
v -384 -752 0
v -912 -784 0
v -928 -784 0
v -928 -768 0
v -912 -768 0
v -896 -784 0
v -912 -784 0
v -912 -768 0
v -896 -768 0
v -400 -784 0
v -416 -784 0
v -416 -768 0
v -400 -768 0
v -384 -784 0
v -400 -784 0
v -400 -768 0
v -384 -768 0
v -912 -800 0
v -928 -800 0
v -928 -784 0
v -912 -784 0
v -896 -800 0
v -912 -800 0
v -912 -784 0
v -896 -784 0
v -400 -800 0
v -416 -800 0
v -416 -784 0
v -400 -784 0
v -384 -800 0
v -400 -800 0
v -400 -784 0
v -384 -784 0
v -912 -816 0
v -928 -816 0
v -928 -800 0
v -912 -800 0
v -896 -816 0
v -912 -816 0
v -912 -800 0
v -896 -800 0
v -880 -816 0
v -896 -816 0
v -896 -800 0
v -880 -800 0
v -912 -880 0
v -928 -880 0
v -928 -864 0
v -912 -864 0
v -896 -880 0
v -912 -880 0
v -912 -864 0
v -896 -864 0
v -880 -880 0
v -896 -880 0
v -896 -864 0
v -880 -864 0
v -864 -880 0
v -880 -880 0
v -880 -864 0
v -864 -864 0
v -848 -880 0
v -864 -880 0
v -864 -864 0
v -848 -864 0
v -832 -880 0
v -848 -880 0
v -848 -864 0
v -832 -864 0
v -400 -880 0
v -416 -880 0
v -416 -864 0
v -400 -864 0
v -384 -880 0
v -400 -880 0
v -400 -864 0
v -384 -864 0
v -912 -896 0
v -928 -896 0
v -928 -880 0
v -912 -880 0
v -896 -896 0
v -912 -896 0
v -912 -880 0
v -896 -880 0
v -848 -896 0
v -864 -896 0
v -864 -880 0
v -848 -880 0
v -832 -896 0
v -848 -896 0
v -848 -880 0
v -832 -880 0
v -400 -896 0
v -416 -896 0
v -416 -880 0
v -400 -880 0
v -384 -896 0
v -400 -896 0
v -400 -880 0
v -384 -880 0
v -912 -912 0
v -928 -912 0
v -928 -896 0
v -912 -896 0
v -896 -912 0
v -912 -912 0
v -912 -896 0
v -896 -896 0
v -848 -912 0
v -864 -912 0
v -864 -896 0
v -848 -896 0
v -832 -912 0
v -848 -912 0
v -848 -896 0
v -832 -896 0
v -400 -912 0
v -416 -912 0
v -416 -896 0
v -400 -896 0
v -384 -912 0
v -400 -912 0
v -400 -896 0
v -384 -896 0
v -912 -928 0
v -928 -928 0
v -928 -912 0
v -912 -912 0
v -896 -928 0
v -912 -928 0
v -912 -912 0
v -896 -912 0
v -848 -928 0
v -864 -928 0
v -864 -912 0
v -848 -912 0
v -832 -928 0
v -848 -928 0
v -848 -912 0
v -832 -912 0
v -448 -928 0
v -464 -928 0
v -464 -912 0
v -448 -912 0
v -432 -928 0
v -448 -928 0
v -448 -912 0
v -432 -912 0
v -416 -928 0
v -432 -928 0
v -432 -912 0
v -416 -912 0
v -400 -928 0
v -416 -928 0
v -416 -912 0
v -400 -912 0
v -384 -928 0
v -400 -928 0
v -400 -912 0
v -384 -912 0
v -912 -944 0
v -928 -944 0
v -928 -928 0
v -912 -928 0
v -896 -944 0
v -912 -944 0
v -912 -928 0
v -896 -928 0
v -880 -944 0
v -896 -944 0
v -896 -928 0
v -880 -928 0
v -864 -944 0
v -880 -944 0
v -880 -928 0
v -864 -928 0
v -848 -944 0
v -864 -944 0
v -864 -928 0
v -848 -928 0
v -832 -944 0
v -848 -944 0
v -848 -928 0
v -832 -928 0
v -448 -944 0
v -464 -944 0
v -464 -928 0
v -448 -928 0
v -432 -944 0
v -448 -944 0
v -448 -928 0
v -432 -928 0
v -912 -960 0
v -928 -960 0
v -928 -944 0
v -912 -944 0
v -896 -960 0
v -912 -960 0
v -912 -944 0
v -896 -944 0
v -448 -960 0
v -464 -960 0
v -464 -944 0
v -448 -944 0
v -432 -960 0
v -448 -960 0
v -448 -944 0
v -432 -944 0
v -912 -976 0
v -928 -976 0
v -928 -960 0
v -912 -960 0
v -896 -976 0
v -912 -976 0
v -912 -960 0
v -896 -960 0
v -448 -976 0
v -464 -976 0
v -464 -960 0
v -448 -960 0
v -432 -976 0
v -448 -976 0
v -448 -960 0
v -432 -960 0
v -416 -976 0
v -432 -976 0
v -432 -960 0
v -416 -960 0
v -400 -976 0
v -416 -976 0
v -416 -960 0
v -400 -960 0
v -384 -976 0
v -400 -976 0
v -400 -960 0
v -384 -960 0
v -912 -992 0
v -928 -992 0
v -928 -976 0
v -912 -976 0
v -896 -992 0
v -912 -992 0
v -912 -976 0
v -896 -976 0
v -400 -992 0
v -416 -992 0
v -416 -976 0
v -400 -976 0
v -384 -992 0
v -400 -992 0
v -400 -976 0
v -384 -976 0
v -912 -1008 0
v -928 -1008 0
v -928 -992 0
v -912 -992 0
v -896 -1008 0
v -912 -1008 0
v -912 -992 0
v -896 -992 0
v -400 -1008 0
v -416 -1008 0
v -416 -992 0
v -400 -992 0
v -384 -1008 0
v -400 -1008 0
v -400 -992 0
v -384 -992 0
v -912 -1024 0
v -928 -1024 0
v -928 -1008 0
v -912 -1008 0
v -896 -1024 0
v -912 -1024 0
v -912 -1008 0
v -896 -1008 0
v -880 -1024 0
v -896 -1024 0
v -896 -1008 0
v -880 -1008 0
v -864 -1024 0
v -880 -1024 0
v -880 -1008 0
v -864 -1008 0
v -848 -1024 0
v -864 -1024 0
v -864 -1008 0
v -848 -1008 0
v -832 -1024 0
v -848 -1024 0
v -848 -1008 0
v -832 -1008 0
v -816 -1024 0
v -832 -1024 0
v -832 -1008 0
v -816 -1008 0
v -800 -1024 0
v -816 -1024 0
v -816 -1008 0
v -800 -1008 0
v -784 -1024 0
v -800 -1024 0
v -800 -1008 0
v -784 -1008 0
v -768 -1024 0
v -784 -1024 0
v -784 -1008 0
v -768 -1008 0
v -752 -1024 0
v -768 -1024 0
v -768 -1008 0
v -752 -1008 0
v -736 -1024 0
v -752 -1024 0
v -752 -1008 0
v -736 -1008 0
v -720 -1024 0
v -736 -1024 0
v -736 -1008 0
v -720 -1008 0
v -576 -1024 0
v -592 -1024 0
v -592 -1008 0
v -576 -1008 0
v -560 -1024 0
v -576 -1024 0
v -576 -1008 0
v -560 -1008 0
v -544 -1024 0
v -560 -1024 0
v -560 -1008 0
v -544 -1008 0
v -528 -1024 0
v -544 -1024 0
v -544 -1008 0
v -528 -1008 0
v -512 -1024 0
v -528 -1024 0
v -528 -1008 0
v -512 -1008 0
v -496 -1024 0
v -512 -1024 0
v -512 -1008 0
v -496 -1008 0
v -480 -1024 0
v -496 -1024 0
v -496 -1008 0
v -480 -1008 0
v -464 -1024 0
v -480 -1024 0
v -480 -1008 0
v -464 -1008 0
v -448 -1024 0
v -464 -1024 0
v -464 -1008 0
v -448 -1008 0
v -432 -1024 0
v -448 -1024 0
v -448 -1008 0
v -432 -1008 0
v -416 -1024 0
v -432 -1024 0
v -432 -1008 0
v -416 -1008 0
v -400 -1024 0
v -416 -1024 0
v -416 -1008 0
v -400 -1008 0
v -384 -1024 0
v -400 -1024 0
v -400 -1008 0
v -384 -1008 0

# Texture cooridinates (Count = 12)
vt 0.8956612 0.2262357
vt 0.9121901 0.2262357
vt 0.9121901 0.256654
vt 0.8956612 0.256654
vt 0.8254132 0.2262357
vt 0.8419421 0.2262357
vt 0.8419421 0.256654
vt 0.8254132 0.256654
vt 0.8780992 0.2262357
vt 0.8946281 0.2262357
vt 0.8946281 0.256654
vt 0.8780992 0.256654

# Normal
vn 0 0 -1

# Mesh description
g Map-01_mesh_0003

# Faces
f 1/1/1 2/2/1 3/3/1 4/4/1
f 5/5/1 6/6/1 7/7/1 8/8/1
f 9/5/1 10/6/1 11/7/1 12/8/1
f 13/5/1 14/6/1 15/7/1 16/8/1
f 17/5/1 18/6/1 19/7/1 20/8/1
f 21/5/1 22/6/1 23/7/1 24/8/1
f 25/5/1 26/6/1 27/7/1 28/8/1
f 29/5/1 30/6/1 31/7/1 32/8/1
f 33/5/1 34/6/1 35/7/1 36/8/1
f 37/5/1 38/6/1 39/7/1 40/8/1
f 41/5/1 42/6/1 43/7/1 44/8/1
f 45/5/1 46/6/1 47/7/1 48/8/1
f 49/5/1 50/6/1 51/7/1 52/8/1
f 53/5/1 54/6/1 55/7/1 56/8/1
f 57/5/1 58/6/1 59/7/1 60/8/1
f 61/5/1 62/6/1 63/7/1 64/8/1
f 65/5/1 66/6/1 67/7/1 68/8/1
f 69/5/1 70/6/1 71/7/1 72/8/1
f 73/5/1 74/6/1 75/7/1 76/8/1
f 77/5/1 78/6/1 79/7/1 80/8/1
f 81/5/1 82/6/1 83/7/1 84/8/1
f 85/5/1 86/6/1 87/7/1 88/8/1
f 89/5/1 90/6/1 91/7/1 92/8/1
f 93/5/1 94/6/1 95/7/1 96/8/1
f 97/9/1 98/10/1 99/11/1 100/12/1
f 101/1/1 102/2/1 103/3/1 104/4/1
f 105/9/1 106/10/1 107/11/1 108/12/1
f 109/1/1 110/2/1 111/3/1 112/4/1
f 113/9/1 114/10/1 115/11/1 116/12/1
f 117/1/1 118/2/1 119/3/1 120/4/1
f 121/9/1 122/10/1 123/11/1 124/12/1
f 125/1/1 126/2/1 127/3/1 128/4/1
f 129/9/1 130/10/1 131/11/1 132/12/1
f 133/1/1 134/2/1 135/3/1 136/4/1
f 137/9/1 138/10/1 139/11/1 140/12/1
f 141/1/1 142/2/1 143/3/1 144/4/1
f 145/5/1 146/6/1 147/7/1 148/8/1
f 149/5/1 150/6/1 151/7/1 152/8/1
f 153/5/1 154/6/1 155/7/1 156/8/1
f 157/9/1 158/10/1 159/11/1 160/12/1
f 161/1/1 162/2/1 163/3/1 164/4/1
f 165/9/1 166/10/1 167/11/1 168/12/1
f 169/1/1 170/2/1 171/3/1 172/4/1
f 173/9/1 174/10/1 175/11/1 176/12/1
f 177/1/1 178/2/1 179/3/1 180/4/1
f 181/9/1 182/10/1 183/11/1 184/12/1
f 185/1/1 186/2/1 187/3/1 188/4/1
f 189/9/1 190/10/1 191/11/1 192/12/1
f 193/1/1 194/2/1 195/3/1 196/4/1
f 197/9/1 198/10/1 199/11/1 200/12/1
f 201/1/1 202/2/1 203/3/1 204/4/1
f 205/9/1 206/10/1 207/11/1 208/12/1
f 209/1/1 210/2/1 211/3/1 212/4/1
f 213/9/1 214/10/1 215/11/1 216/12/1
f 217/1/1 218/2/1 219/3/1 220/4/1
f 221/9/1 222/10/1 223/11/1 224/12/1
f 225/1/1 226/2/1 227/3/1 228/4/1
f 229/5/1 230/6/1 231/7/1 232/8/1
f 233/5/1 234/6/1 235/7/1 236/8/1
f 237/1/1 238/2/1 239/3/1 240/4/1
f 241/5/1 242/6/1 243/7/1 244/8/1
f 245/5/1 246/6/1 247/7/1 248/8/1
f 249/5/1 250/6/1 251/7/1 252/8/1
f 253/5/1 254/6/1 255/7/1 256/8/1
f 257/9/1 258/10/1 259/11/1 260/12/1
f 261/1/1 262/2/1 263/3/1 264/4/1
f 265/9/1 266/10/1 267/11/1 268/12/1
f 269/1/1 270/2/1 271/3/1 272/4/1
f 273/9/1 274/10/1 275/11/1 276/12/1
f 277/1/1 278/2/1 279/3/1 280/4/1
f 281/9/1 282/10/1 283/11/1 284/12/1
f 285/1/1 286/2/1 287/3/1 288/4/1
f 289/9/1 290/10/1 291/11/1 292/12/1
f 293/1/1 294/2/1 295/3/1 296/4/1
f 297/9/1 298/10/1 299/11/1 300/12/1
f 301/1/1 302/2/1 303/3/1 304/4/1
f 305/9/1 306/10/1 307/11/1 308/12/1
f 309/1/1 310/2/1 311/3/1 312/4/1
f 313/9/1 314/10/1 315/11/1 316/12/1
f 317/1/1 318/2/1 319/3/1 320/4/1
f 321/9/1 322/10/1 323/11/1 324/12/1
f 325/1/1 326/2/1 327/3/1 328/4/1
f 329/9/1 330/10/1 331/11/1 332/12/1
f 333/1/1 334/2/1 335/3/1 336/4/1
f 337/5/1 338/6/1 339/7/1 340/8/1
f 341/5/1 342/6/1 343/7/1 344/8/1
f 345/5/1 346/6/1 347/7/1 348/8/1
f 349/9/1 350/10/1 351/11/1 352/12/1
f 353/1/1 354/2/1 355/3/1 356/4/1
f 357/5/1 358/6/1 359/7/1 360/8/1
f 361/5/1 362/6/1 363/7/1 364/8/1
f 365/5/1 366/6/1 367/7/1 368/8/1
f 369/5/1 370/6/1 371/7/1 372/8/1
f 373/9/1 374/10/1 375/11/1 376/12/1
f 377/1/1 378/2/1 379/3/1 380/4/1
f 381/9/1 382/10/1 383/11/1 384/12/1
f 385/1/1 386/2/1 387/3/1 388/4/1
f 389/9/1 390/10/1 391/11/1 392/12/1
f 393/1/1 394/2/1 395/3/1 396/4/1
f 397/9/1 398/10/1 399/11/1 400/12/1
f 401/1/1 402/2/1 403/3/1 404/4/1
f 405/9/1 406/10/1 407/11/1 408/12/1
f 409/1/1 410/2/1 411/3/1 412/4/1
f 413/5/1 414/6/1 415/7/1 416/8/1
f 417/5/1 418/6/1 419/7/1 420/8/1
f 421/5/1 422/6/1 423/7/1 424/8/1
f 425/9/1 426/10/1 427/11/1 428/12/1
f 429/1/1 430/2/1 431/3/1 432/4/1
f 433/9/1 434/10/1 435/11/1 436/12/1
f 437/1/1 438/2/1 439/3/1 440/4/1
f 441/9/1 442/10/1 443/11/1 444/12/1
f 445/1/1 446/2/1 447/3/1 448/4/1
f 449/9/1 450/10/1 451/11/1 452/12/1
f 453/1/1 454/2/1 455/3/1 456/4/1
f 457/9/1 458/10/1 459/11/1 460/12/1
f 461/1/1 462/2/1 463/3/1 464/4/1
f 465/5/1 466/6/1 467/7/1 468/8/1
f 469/5/1 470/6/1 471/7/1 472/8/1
f 473/5/1 474/6/1 475/7/1 476/8/1
f 477/5/1 478/6/1 479/7/1 480/8/1
f 481/5/1 482/6/1 483/7/1 484/8/1
f 485/5/1 486/6/1 487/7/1 488/8/1
f 489/5/1 490/6/1 491/7/1 492/8/1
f 493/5/1 494/6/1 495/7/1 496/8/1
f 497/5/1 498/6/1 499/7/1 500/8/1
f 501/5/1 502/6/1 503/7/1 504/8/1
f 505/5/1 506/6/1 507/7/1 508/8/1
f 509/5/1 510/6/1 511/7/1 512/8/1
f 513/5/1 514/6/1 515/7/1 516/8/1
f 517/5/1 518/6/1 519/7/1 520/8/1
f 521/5/1 522/6/1 523/7/1 524/8/1
f 525/5/1 526/6/1 527/7/1 528/8/1
f 529/5/1 530/6/1 531/7/1 532/8/1
f 533/5/1 534/6/1 535/7/1 536/8/1
f 537/5/1 538/6/1 539/7/1 540/8/1
f 541/5/1 542/6/1 543/7/1 544/8/1
f 545/5/1 546/6/1 547/7/1 548/8/1
f 549/5/1 550/6/1 551/7/1 552/8/1
f 553/5/1 554/6/1 555/7/1 556/8/1
f 557/5/1 558/6/1 559/7/1 560/8/1
f 561/9/1 562/10/1 563/11/1 564/12/1

